<svg id="ei5d8odygfi1" xmlns="http://www.w3.org/2000/svg" xmlns:xlink="http://www.w3.org/1999/xlink" viewBox="0 0 400 400" shape-rendering="geometricPrecision" text-rendering="geometricPrecision"><g id="ei5d8odygfi2"><path id="ei5d8odygfi3" d="M96.965000,277.572000C95.180000,278.006000,94.851000,278.291000,94.483000,279.720000C94.182000,280.888000,93.999000,281.011000,92.385000,281.128000C90.062000,281.295000,89.600000,281.746000,89.600000,283.849000L89.600000,285.600000L85.790000,285.600000C81.649000,285.600000,81.200000,285.890000,81.200000,288.567000C81.200000,289.431000,81.007000,289.495000,77.704000,289.728000C73.904000,289.996000,73.200000,290.417000,73.200000,292.421000C73.200000,293.409000,73.045000,293.507000,71.130000,293.734000C69.992000,293.869000,68.957000,294.137000,68.830000,294.330000C68.704000,294.522000,68.192000,294.895000,67.694000,295.157000C63.451000,297.392000,63.557000,306.400000,67.826000,306.400000C68.768000,306.400000,68.800000,306.496000,68.806000,309.300000C68.814000,313.073000,69.356000,314.161000,71.309000,314.324000C72.748000,314.444000,72.800000,314.502000,72.800000,315.973000C72.800000,318.412000,74.225000,321.168000,75.834000,321.840000C77.149000,322.389000,77.200000,322.492000,77.200000,324.563000C77.200000,326.928000,77.468000,327.200000,79.793000,327.200000L81.120000,327.200000L81.260000,330.780000C81.417000,334.805000,81.628000,335.173000,83.952000,335.484000L85.600000,335.705000L85.600000,338.679000C85.600000,342.376000,85.975000,343.123000,87.993000,343.445000C89.561000,343.696000,89.562000,343.697000,89.681000,345.748000C89.785000,347.536000,89.917000,347.817000,90.711000,347.929000C92.555000,348.191000,93.477000,349.693000,93.781000,352.930000C94.083000,356.162000,94.281000,356.382000,96.900000,356.395000L98,356.400000L98,359.920000C98,363.906000,98.267000,364.400000,100.421000,364.400000L101.883000,364.400000L102.142000,367.472000C102.421000,370.767000,103.161000,372.400000,104.377000,372.400000C106.041000,372.400000,106.400000,372.825000,106.400000,374.800000C106.400000,376.177000,106.578000,376.783000,107.033000,376.957000C107.993000,377.326000,117.913000,377.247000,118.705000,376.865000C119.087000,376.681000,119.934000,376.272000,120.587000,375.957000C121.350000,375.588000,121.907000,374.922000,122.145000,374.092000C122.502000,372.847000,122.592000,372.800000,124.615000,372.800000C126.923000,372.800000,127.200000,372.522000,127.200000,370.207000L127.200000,368.880000L130.780000,368.740000C134.805000,368.583000,135.173000,368.372000,135.484000,366.048000L135.705000,364.400000L138.853000,364.400000C142.449000,364.400000,143.600000,363.721000,143.600000,361.600000C143.600000,360.452000,143.675000,360.400000,145.325000,360.400000C147.981000,360.400000,150.251000,359.109000,151.219000,357.048000C152.365000,354.610000,152.229000,348.291000,151.026000,348.061000C149.329000,347.736000,148,345.802000,148,343.657000C148,340.325000,147.537000,339.600000,145.410000,339.600000C144.068000,339.600000,143.600000,339.445000,143.600000,339C143.600000,338.538000,143.083000,338.400000,141.346000,338.400000L139.092000,338.400000L136.166000,335.378000C133.408000,332.529000,131.600000,329.364000,131.600000,327.385000C131.600000,327.063000,131.465000,326.800000,131.300000,326.800000C130.461000,326.798000,128.870000,324.778000,128.376000,323.085000C128.068000,322.032000,127.048000,320.234000,126.108000,319.088000C125.169000,317.943000,124.400000,316.698000,124.400000,316.322000C124.400000,315.192000,123.466000,313.456000,122.345000,312.502000C121.181000,311.512000,119.600000,308.462000,119.600000,307.207000C119.600000,306.766000,118.835000,305.626000,117.900000,304.675000C116.626000,303.378000,116.013000,302.300000,115.453000,300.372000C115.043000,298.958000,114.368000,297.091000,113.953000,296.225000C113.063000,294.364000,113.009000,292.584000,113.800000,291.200000C114.190000,290.517000,114.376000,288.897000,114.386000,286.090000C114.401000,281.601000,114.156000,281.200000,111.396000,281.200000C110.544000,281.200000,110.431000,281,110.322000,279.300000L110.200000,277.400000L104.200000,277.336000C100.900000,277.301000,97.644000,277.407000,96.965000,277.572000M289.867000,277.467000C289.720000,277.613000,289.600000,278.513000,289.600000,279.467000C289.600000,281.134000,289.553000,281.200000,288.374000,281.200000C285.853000,281.200000,285.600000,281.621000,285.600000,285.827000C285.600000,288.299000,285.810000,290.127000,286.200000,291.062000C286.858000,292.636000,286.993000,294.634000,286.464000,294.961000C286.279000,295.075000,285.814000,296.391000,285.430000,297.884000C284.513000,301.459000,283.301000,303.873000,281.938000,304.844000C281.214000,305.360000,280.737000,306.147000,280.562000,307.117000C280.204000,309.094000,279.428000,310.556000,277.849000,312.231000C277.128000,312.995000,276.233000,314.594000,275.855000,315.792000C275.388000,317.273000,274.791000,318.236000,273.985000,318.811000C273.333000,319.275000,272.800000,319.860000,272.800000,320.111000C272.800000,321.447000,270.931000,325.174000,269.922000,325.849000C269.152000,326.365000,268.611000,327.254000,268.192000,328.692000C267.446000,331.252000,266.171000,333.483000,265.271000,333.803000C264.902000,333.934000,263.814000,335.037000,262.854000,336.254000L261.108000,338.466000L258.753000,338.333000C256.726000,338.219000,256.399000,338.297000,256.399000,338.900000C256.400000,339.462000,256.049000,339.600000,254.614000,339.600000C252.495000,339.600000,252,340.234000,252,342.947000C252,344.385000,251.842000,344.796000,251.213000,344.996000C248.645000,345.811000,246.419000,355.308000,248.600000,356.145000C248.930000,356.271000,249.200000,356.619000,249.200000,356.918000C249.200000,357.550000,250.851000,359.200000,251.483000,359.200000C251.720000,359.200000,252.018000,359.470000,252.145000,359.800000C252.306000,360.220000,252.962000,360.400000,254.336000,360.400000L256.298000,360.400000L256.552000,361.987000C256.882000,364.051000,257.608000,364.400000,261.574000,364.400000L264.800000,364.400000L264.800000,366.186000C264.800000,368.476000,265.385000,368.800000,269.522000,368.800000L272.697000,368.800000L272.962000,370.800000L273.228000,372.800000L275.414000,372.800000C277.431000,372.800000,277.600000,372.871000,277.600000,373.724000C277.600000,376.217000,280.300000,377.186000,287.267000,377.194000C293.696000,377.202000,293.600000,377.241000,293.600000,374.557000C293.600000,372.570000,293.673000,372.400000,294.524000,372.400000C296.568000,372.400000,297.981000,369.835000,297.994000,366.100000C298,364.432000,298.026000,364.400000,299.371000,364.400000C301.559000,364.400000,302,363.632000,302,359.823000L302,356.504000L303.820000,356.299000C306.222000,356.028000,306.179000,356.106000,306.339000,351.767000L306.477000,348L307.806000,348C310.088000,348,310.400000,347.709000,310.400000,345.575000C310.400000,343.680000,310.431000,343.630000,311.786000,343.376000C313.752000,343.007000,314.111000,342.362000,314.315000,338.836000L314.496000,335.716000L316.333000,335.358000C318.496000,334.936000,318.700000,334.496000,318.760000,330.100000L318.800000,327.200000L320.320000,327.200000C322.350000,327.200000,322.800000,326.639000,322.800000,324.110000C322.800000,322.218000,322.909000,321.939000,323.779000,321.608000C324.318000,321.403000,325.078000,320.733000,325.469000,320.118000C325.861000,319.503000,326.410000,318.856000,326.690000,318.680000C326.991000,318.491000,327.200000,317.550000,327.200000,316.380000C327.200000,314.477000,327.243000,314.400000,328.324000,314.400000C330.454000,314.400000,330.920000,313.652000,331.116000,309.913000L331.294000,306.516000L333.125000,306.158000C336.807000,305.438000,336.194000,297.205000,332.306000,295.157000C331.808000,294.895000,331.296000,294.522000,331.170000,294.330000C331.043000,294.137000,330.008000,293.869000,328.870000,293.734000C326.853000,293.495000,326.800000,293.455000,326.800000,292.193000C326.800000,290.345000,326.053000,289.940000,322.206000,289.700000C318.983000,289.499000,318.800000,289.438000,318.800000,288.570000C318.800000,285.890000,318.352000,285.600000,314.210000,285.600000L310.400000,285.600000L310.400000,283.880000C310.400000,281.688000,309.884000,281.200000,307.569000,281.200000C305.860000,281.200000,305.653000,281.094000,305.193000,279.982000C304.283000,277.785000,302.305000,277.200000,295.792000,277.200000C292.680000,277.200000,290.013000,277.320000,289.867000,277.467000M120.074000,333.155000C120.583000,333.350000,121.990000,334.432000,123.200000,335.559000L125.400000,337.607000L125.400000,341.765000L125.400000,345.924000L123.200000,348.006000C120.609000,350.458000,119.854000,350.800000,117.024000,350.800000C110.351000,350.800000,106.925000,346.669000,107.798000,339.677000C108.103000,337.238000,111.242000,333.480000,113.308000,333.081000C114.996000,332.755000,119.149000,332.801000,120.074000,333.155000M287.009000,333.203000C287.592000,333.425000,288.863000,334.400000,289.832000,335.368000C298.260000,343.797000,285.782000,356.607000,277.200000,348.335000C269.954000,341.350000,277.563000,329.612000,287.009000,333.203000" fill="rgb(4,148,140)" fill-opacity="0" fill-rule="evenodd" stroke="rgb(0,0,0)" stroke-width="1" stroke-opacity="0.97"/><path id="ei5d8odygfi4" d="M189.873000,23.060000C189.723000,23.210000,189.600000,30.773000,189.600000,39.867000L189.600000,56.400000L172.993000,56.400000L156.386000,56.400000L156.493000,66.700000L156.600000,77L173.100000,77.104000L189.600000,77.209000L189.600000,110.404000L189.600000,143.600000L200,143.600000L210.400000,143.600000L210.400000,110.400000L210.400000,77.200000L227,77.200000L243.600000,77.200000L243.600000,66.800000L243.600000,56.400000L227.004000,56.400000L210.409000,56.400000L210.304000,39.700000L210.200000,23L200.173000,22.893000C194.659000,22.835000,190.024000,22.910000,189.873000,23.060000M170.299000,156.960000C170.432000,157.175000,170.227000,157.219000,169.821000,157.063000C169.293000,156.861000,169.171000,156.946000,169.343000,157.395000C169.471000,157.728000,169.401000,158,169.187000,158C168.676000,158,168.687000,159.483000,169.200000,159.800000C169.420000,159.936000,169.600000,159.704000,169.600000,159.286000C169.600000,158.352000,170.604000,157.435000,172.200000,156.909000C173.371000,156.524000,173.359000,156.515000,171.733000,156.550000C170.804000,156.569000,170.170000,156.751000,170.299000,156.960000M228,156.800000C227.478000,157.137000,227.485000,157.189000,228.051000,157.194000C228.409000,157.197000,228.924000,157.468000,229.196000,157.796000C229.468000,158.123000,229.837000,158.301000,230.017000,158.190000C230.383000,157.963000,230.948000,159.426000,230.676000,159.896000C230.579000,160.063000,230.645000,160.560000,230.822000,161C231.066000,161.608000,231.151000,161.411000,231.172000,160.180000C231.187000,159.289000,230.984000,158.344000,230.720000,158.080000C230.456000,157.816000,230.388000,157.600000,230.569000,157.600000C230.750000,157.600000,230.674000,157.330000,230.400000,157C229.831000,156.315000,228.874000,156.235000,228,156.800000M192.475000,160.825000C192.571000,161.114000,192.886000,161.429000,193.175000,161.525000C193.475000,161.625000,193.625000,161.475000,193.525000,161.175000C193.429000,160.886000,193.114000,160.571000,192.825000,160.475000C192.525000,160.375000,192.375000,160.525000,192.475000,160.825000M167.200000,169.133000C167.200000,169.697000,167.651000,169.955000,168.239000,169.730000C169.074000,169.409000,168.917000,168.800000,168,168.800000C167.560000,168.800000,167.200000,168.950000,167.200000,169.133000M165.122000,170.211000C164.568000,171.427000,165.337000,172.672000,165.990000,171.616000C166.187000,171.298000,166.258000,170.895000,166.150000,170.719000C166.042000,170.544000,166.233000,170.400000,166.576000,170.400000C167.387000,170.400000,167.381000,169.755000,166.567000,169.443000C165.650000,169.091000,165.627000,169.103000,165.122000,170.211000M231.333000,169.829000C231.333000,170.104000,231.599000,170.222000,231.932000,170.094000C232.269000,169.965000,232.425000,170.036000,232.288000,170.257000C232.155000,170.473000,232.753000,171.424000,233.618000,172.371000C234.483000,173.317000,235.100000,174.238000,234.989000,174.418000C234.878000,174.598000,234.984000,174.866000,235.224000,175.015000C235.699000,175.308000,235.374000,172.160000,234.760000,170.511000C234.309000,169.303000,231.333000,168.710000,231.333000,169.829000M234.161000,172.032000C234.956000,173.446000,234.872000,173.395000,233.194000,171.445000C232.589000,170.742000,232.433000,170.363000,232.796000,170.477000C233.124000,170.580000,233.739000,171.280000,234.161000,172.032000M164.400000,183.200000C164.400000,184.622000,164.227000,185.600000,163.976000,185.600000C163.743000,185.600000,163.668000,185.787000,163.810000,186.016000C163.976000,186.284000,163.711000,186.343000,163.066000,186.181000C161.799000,185.863000,160.580000,187.470000,160.955000,188.964000C161.107000,189.569000,161.011000,190.001000,160.699000,190.112000C160.425000,190.210000,160.345000,190.445000,160.522000,190.634000C161.036000,191.182000,161.619000,189.899000,161.378000,188.749000C161.154000,187.678000,161.991000,186.400000,162.918000,186.400000C163.171000,186.400000,162.978000,186.680000,162.489000,187.023000C161.521000,187.701000,161.333000,188.588000,162.062000,189.038000C162.327000,189.202000,162.416000,189.149000,162.270000,188.913000C161.980000,188.443000,163.090000,187.059000,164.038000,186.708000C164.653000,186.481000,165.214000,180.800000,164.621000,180.800000C164.500000,180.800000,164.400000,181.880000,164.400000,183.200000M235.756000,186.759000C235.816000,187.709000,237.899000,190.110000,238.396000,189.802000C238.618000,189.665000,238.814000,189.698000,238.831000,189.876000C238.976000,191.418000,239.600000,192.734000,239.600000,191.500000C239.600000,190.571000,238.199000,187.458000,237.555000,186.956000C236.479000,186.118000,235.710000,186.034000,235.756000,186.759000M237.599000,187.798000C238.924000,189.209000,238.439000,189.354000,237.075000,187.954000C236.456000,187.319000,236.110000,186.800000,236.305000,186.800000C236.501000,186.800000,237.083000,187.249000,237.599000,187.798000M158.305000,203.229000C157.306000,203.811000,156.869000,204.803000,156.627000,207.037000C156.511000,208.116000,156.516000,208.730000,156.639000,208.400000C156.763000,208.070000,156.968000,207.530000,157.095000,207.200000C157.223000,206.870000,157.301000,206.471000,157.268000,206.314000C157.236000,206.157000,157.467000,206.127000,157.781000,206.248000C158.101000,206.371000,158.579000,206.102000,158.872000,205.633000C159.158000,205.175000,159.557000,204.800000,159.758000,204.800000C159.959000,204.800000,159.798000,205.160000,159.400000,205.600000C159.002000,206.040000,158.865000,206.400000,159.095000,206.400000C159.596000,206.400000,160.068000,205.409000,160.286000,203.900000C160.458000,202.704000,159.667000,202.436000,158.305000,203.229000M239.673000,205.500000C239.745000,206.119000,240.019000,206.556000,240.300000,206.500000C240.575000,206.445000,240.800000,206.574000,240.800000,206.787000C240.800000,207.001000,241.047000,207.080000,241.348000,206.964000C241.650000,206.849000,242.199000,207.056000,242.567000,207.425000C243.322000,208.179000,243.821000,207.952000,243.462000,207.017000C243.332000,206.678000,242.930000,206.400000,242.570000,206.400000C242.210000,206.400000,241.561000,205.950000,241.129000,205.400000C240.099000,204.091000,239.516000,204.131000,239.673000,205.500000M206.509000,216.400000C206.509000,217.390000,206.587000,217.795000,206.682000,217.300000C206.778000,216.805000,206.778000,215.995000,206.682000,215.500000C206.587000,215.005000,206.509000,215.410000,206.509000,216.400000M193,216.400000C193.178000,216.961000,193.136000,217.208000,192.888000,217.054000C192.669000,216.919000,192.515000,217.122000,192.545000,217.504000C192.579000,217.938000,192.338000,218.179000,191.904000,218.145000C191.519000,218.115000,191.322000,218.274000,191.464000,218.503000C191.623000,218.761000,191.347000,218.845000,190.731000,218.727000C189.813000,218.552000,189.736000,218.661000,189.653000,220.269000C189.564000,221.989000,189.570000,221.997000,190.584000,221.535000C192.396000,220.709000,194.288000,216.472000,193.157000,215.774000C192.855000,215.587000,192.805000,215.787000,193,216.400000M206.610000,218.783000C206.286000,219.308000,206.673000,221.874000,207.119000,222.150000C208.116000,222.766000,210.397000,222.856000,210.172000,222.271000C210.040000,221.927000,209.672000,221.751000,209.348000,221.875000C208.678000,222.132000,207.548000,220.816000,207.912000,220.204000C208.045000,219.982000,207.849000,220.047000,207.477000,220.349000C206.768000,220.924000,206.520000,220.440000,207.183000,219.777000C207.397000,219.563000,207.419000,219.155000,207.233000,218.854000C206.986000,218.454000,206.825000,218.436000,206.610000,218.783000M154.964000,221.800000C154.414000,222.350000,153.792000,222.800000,153.582000,222.800000C153.372000,222.800000,153.200000,223.059000,153.200000,223.376000C153.200000,223.877000,153.343000,223.878000,154.300000,223.379000C154.905000,223.063000,155.625000,222.804000,155.900000,222.802000C156.175000,222.801000,156.400000,222.350000,156.400000,221.800000C156.400000,221.250000,156.302000,220.800000,156.182000,220.800000C156.062000,220.800000,155.514000,221.250000,154.964000,221.800000M244.200000,222.966000C244.420000,223.056000,245.090000,223.238000,245.690000,223.370000C246.308000,223.506000,247.037000,224.084000,247.374000,224.705000C247.701000,225.307000,247.963000,225.530000,247.956000,225.200000C247.937000,224.241000,247.448000,223.413000,246.800000,223.240000C245.914000,223.004000,243.734000,222.774000,244.200000,222.966000M149.619000,231.580000C149.300000,231.782000,148.867000,231.841000,148.657000,231.712000C148.448000,231.582000,148.395000,231.669000,148.541000,231.904000C148.686000,232.139000,148.579000,232.412000,148.302000,232.511000C148.026000,232.610000,147.934000,232.834000,148.098000,233.009000C148.261000,233.185000,148.765000,232.994000,149.217000,232.585000C149.669000,232.176000,150.316000,231.800000,150.656000,231.751000C150.995000,231.701000,151.377000,231.557000,151.503000,231.430000C151.881000,231.052000,150.248000,231.182000,149.619000,231.580000M248.097000,231.430000C248.223000,231.557000,248.568000,231.697000,248.863000,231.741000C249.159000,231.786000,249.634000,231.968000,249.919000,232.147000C250.205000,232.325000,250.745000,232.340000,251.119000,232.180000C251.694000,231.935000,251.644000,231.842000,250.800000,231.585000C249.587000,231.215000,247.778000,231.111000,248.097000,231.430000M251.310000,233.200000C251.343000,233.640000,251.512000,234,251.685000,234C251.858000,234,252,233.640000,252,233.200000C252,232.760000,251.831000,232.400000,251.625000,232.400000C251.419000,232.400000,251.277000,232.760000,251.310000,233.200000M148.093000,234.800000C148.093000,235.570000,148.175000,235.885000,148.276000,235.500000C148.376000,235.115000,148.376000,234.485000,148.276000,234.100000C148.175000,233.715000,148.093000,234.030000,148.093000,234.800000M192.475000,240.025000C192.571000,240.314000,192.886000,240.629000,193.175000,240.725000C193.475000,240.825000,193.625000,240.675000,193.525000,240.375000C193.429000,240.086000,193.114000,239.771000,192.825000,239.675000C192.525000,239.575000,192.375000,239.725000,192.475000,240.025000M144.553000,241.016000C143.897000,242.017000,143.932000,243.934000,144.600000,243.600000C144.820000,243.490000,144.955000,243.265000,144.900000,243.100000C144.845000,242.935000,144.991000,242.800000,145.224000,242.800000C145.457000,242.800000,145.554000,242.650000,145.441000,242.466000C145.327000,242.282000,145.857000,241.835000,146.617000,241.472000C148.385000,240.629000,148.374000,240.169000,146.584000,240.118000C145.513000,240.088000,145.017000,240.307000,144.553000,241.016000M252.466000,240.351000C252.064000,240.606000,252.147000,240.745000,252.806000,240.918000C253.287000,241.043000,253.569000,241.326000,253.434000,241.545000C253.298000,241.765000,253.398000,242.075000,253.655000,242.234000C253.948000,242.415000,254.016000,242.350000,253.838000,242.062000C253.681000,241.808000,253.754000,241.600000,253.999000,241.600000C254.244000,241.600000,254.810000,242.425000,255.256000,243.433000C256.295000,245.782000,256.542000,245.524000,255.842000,242.823000C255.162000,240.203000,254.020000,239.366000,252.466000,240.351000M257.804000,252.407000C257.942000,252.630000,258.199000,252.724000,258.374000,252.616000C258.728000,252.397000,259.773000,253.468000,260.116000,254.400000C260.241000,254.740000,260.351000,254.523000,260.368000,253.900000C260.389000,253.175000,260.196000,252.800000,259.800000,252.800000C259.470000,252.800000,259.200000,252.620000,259.200000,252.400000C259.200000,252.180000,258.829000,252,258.376000,252C257.920000,252,257.665000,252.181000,257.804000,252.407000M136.800000,260.800000C136.800000,261.020000,136.597000,261.155000,136.350000,261.100000C136.103000,261.045000,135.817000,261.225000,135.717000,261.500000C135.454000,262.215000,136.019000,262.114000,137.400000,261.200000C138.511000,260.464000,138.533000,260.405000,137.700000,260.403000C137.205000,260.401000,136.800000,260.580000,136.800000,260.800000M261.404000,260.807000C261.542000,261.030000,261.808000,261.118000,261.995000,261.003000C262.182000,260.887000,262.599000,261.056000,262.920000,261.377000C263.242000,261.699000,263.645000,261.835000,263.816000,261.681000C263.987000,261.526000,264.017000,261.709000,263.881000,262.087000C263.746000,262.465000,263.807000,262.881000,264.017000,263.011000C264.228000,263.141000,264.400000,262.782000,264.400000,262.214000C264.400000,261.472000,264.110000,261.070000,263.374000,260.790000C262.042000,260.284000,261.086000,260.292000,261.404000,260.807000M134.800000,269.190000C134.800000,269.406000,134.287000,269.477000,133.649000,269.350000C132.913000,269.203000,132.380000,269.309000,132.172000,269.645000C131.719000,270.379000,131.264000,273.600000,131.614000,273.600000C132.049000,273.600000,132.945000,272.412000,132.698000,272.164000C132.409000,271.875000,134.117000,270.107000,134.500000,270.298000C134.665000,270.380000,134.800000,270.246000,134.800000,270C134.800000,269.754000,134.980000,269.664000,135.200000,269.800000C135.420000,269.936000,135.600000,269.767000,135.600000,269.424000C135.600000,269.081000,135.420000,268.800000,135.200000,268.800000C134.980000,268.800000,134.800000,268.976000,134.800000,269.190000M265.200000,269.600000C264.764000,269.882000,264.743000,269.989000,265.124000,269.994000C265.417000,269.997000,265.522000,270.203000,265.362000,270.462000C265.181000,270.754000,265.252000,270.815000,265.556000,270.627000C266.221000,270.216000,267.091000,271.034000,268.041000,272.963000C268.530000,273.956000,268.761000,274.206000,268.629000,273.600000C268.509000,273.050000,268.408000,272.195000,268.405000,271.700000C268.395000,269.986000,266.512000,268.752000,265.200000,269.600000M206.516000,275.472000C206.543000,276.172000,206.696000,276.664000,206.855000,276.566000C207.014000,276.467000,207.258000,276.570000,207.396000,276.793000C207.534000,277.017000,207.952000,277.197000,208.324000,277.194000C208.799000,277.190000,208.708000,277.040000,208.017000,276.691000C207.477000,276.417000,206.907000,275.745000,206.750000,275.197000C206.495000,274.302000,206.471000,274.330000,206.516000,275.472000M193.200000,275.957000C193.200000,276.227000,193.020000,276.336000,192.800000,276.200000C192.580000,276.064000,192.400000,276.163000,192.400000,276.419000C192.400000,276.676000,192.136000,276.784000,191.813000,276.660000C191.490000,276.536000,191.119000,276.607000,190.989000,276.817000C190.624000,277.408000,192.152000,277.269000,193.023000,276.633000C193.450000,276.321000,193.664000,275.931000,193.499000,275.766000C193.335000,275.601000,193.200000,275.687000,193.200000,275.957000M124.196000,281.607000C124.058000,281.830000,123.777000,281.909000,123.572000,281.783000C123.368000,281.656000,123.200000,281.743000,123.200000,281.976000C123.200000,282.539000,123.936000,282.485000,125.400000,281.814000L126.600000,281.265000L125.524000,281.232000C124.932000,281.215000,124.334000,281.383000,124.196000,281.607000M273.663000,281.377000C273.808000,281.533000,274.168000,281.699000,274.463000,281.746000C275.716000,281.945000,276.500000,282.758000,276.646000,284.008000C276.730000,284.737000,276.915000,285.438000,277.056000,285.567000C277.288000,285.777000,276.931000,281.995000,276.698000,281.767000C276.442000,281.517000,273.434000,281.130000,273.663000,281.377000M123.052000,284.100000C122.729000,285.306000,122.740000,285.794000,123.082000,285.452000C123.396000,285.137000,123.722000,283.200000,123.460000,283.200000C123.368000,283.200000,123.185000,283.605000,123.052000,284.100000M188.812000,284.177000C188.499000,284.762000,188.017000,285.139000,187.725000,285.027000C187.436000,284.916000,187.200000,284.999000,187.200000,285.213000C187.200000,285.426000,187.425000,285.597000,187.700000,285.594000C188.307000,285.586000,189.566000,284.817000,189,284.800000C188.780000,284.793000,188.847000,284.631000,189.149000,284.440000C189.451000,284.249000,189.625000,283.875000,189.536000,283.609000C189.447000,283.341000,189.124000,283.595000,188.812000,284.177000M210.400000,284.386000C210.400000,284.598000,210.748000,284.958000,211.174000,285.186000C212.151000,285.709000,212.400000,285.707000,212.400000,285.176000C212.400000,284.943000,212.239000,284.852000,212.042000,284.974000C211.845000,285.096000,211.581000,284.926000,211.454000,284.598000C211.201000,283.937000,210.400000,283.776000,210.400000,284.386000M116.277000,285.880000C115.039000,286.201000,114.198000,289.600000,115.357000,289.600000C115.988000,289.600000,116.522000,288.521000,116.172000,287.954000C116.044000,287.748000,116.179000,287.630000,116.470000,287.690000C116.762000,287.751000,116.957000,287.581000,116.905000,287.314000C116.850000,287.034000,117.061000,286.925000,117.405000,287.057000C117.732000,287.183000,118,287.076000,118,286.819000C118,286.563000,118.180000,286.464000,118.400000,286.600000C118.620000,286.736000,118.800000,286.567000,118.800000,286.224000C118.800000,285.605000,117.842000,285.475000,116.277000,285.880000M214.520000,287.600000C214.520000,288.810000,214.595000,289.305000,214.687000,288.700000C214.778000,288.095000,214.778000,287.105000,214.687000,286.500000C214.595000,285.895000,214.520000,286.390000,214.520000,287.600000M280.894000,286.166000C281.275000,286.448000,281.487000,286.780000,281.364000,286.903000C281.240000,287.026000,281.514000,287.246000,281.971000,287.391000C282.429000,287.536000,283.065000,288.138000,283.386000,288.727000C283.706000,289.317000,283.975000,289.567000,283.984000,289.282000C283.993000,288.997000,283.540000,288.303000,282.977000,287.741000C282.415000,287.178000,282.190000,286.794000,282.477000,286.887000C282.765000,286.980000,283.360000,287.622000,283.800000,288.313000C284.837000,289.941000,285.368000,289.938000,285.041000,288.305000C284.682000,286.511000,283.947000,285.912000,281.932000,285.773000C280.443000,285.670000,280.298000,285.725000,280.894000,286.166000M212.131000,291.432000C210.129000,293.435000,211.467000,300.600000,213.843000,300.600000C215.052000,300.600000,214.969000,298.847000,213.636000,296.204000C212.976000,294.896000,212.563000,293.728000,212.718000,293.609000C212.873000,293.490000,213.445000,292.891000,213.988000,292.277000L214.977000,291.160000L213.988000,291.522000C212.608000,292.027000,211.968000,293.471000,212.183000,295.600000L212.364000,297.400000L211.931000,295.729000C211.350000,293.485000,211.761000,292.134000,213.311000,291.189000C214.205000,290.644000,214.380000,290.403000,213.882000,290.401000C213.487000,290.401000,212.699000,290.865000,212.131000,291.432000M214.528000,304C214.528000,305.430000,214.601000,306.015000,214.689000,305.300000C214.778000,304.585000,214.778000,303.415000,214.689000,302.700000C214.601000,301.985000,214.528000,302.570000,214.528000,304M185.074000,310.300000C184.978000,310.465000,185.045000,310.960000,185.222000,311.400000C185.503000,312.098000,185.547000,312.060000,185.572000,311.100000C185.600000,310.015000,185.412000,309.714000,185.074000,310.300000M183.798000,313.202000C182.958000,314.130000,183.315000,314.775000,184.319000,314.143000C185.063000,313.675000,185.481000,312.400000,184.891000,312.400000C184.689000,312.400000,184.197000,312.761000,183.798000,313.202000M214.999000,313.999000C215.136000,314.219000,215.627000,314.400000,216.090000,314.400000C217.103000,314.400000,216.714000,313.897000,215.565000,313.722000C215.099000,313.651000,214.857000,313.769000,214.999000,313.999000M180.707000,318.623000C180.546000,318.786000,180.528000,319.369000,180.666000,319.919000C180.826000,320.560000,180.768000,320.828000,180.503000,320.664000C180.274000,320.522000,180.115000,320.719000,180.145000,321.104000C180.179000,321.538000,179.938000,321.779000,179.504000,321.745000C179.114000,321.714000,178.922000,321.874000,179.067000,322.108000C179.232000,322.375000,178.993000,322.439000,178.405000,322.285000C177.765000,322.118000,177.612000,322.172000,177.903000,322.463000C178.793000,323.353000,180.756000,322.440000,181.024000,321.011000C181.311000,319.485000,181.139000,318.189000,180.707000,318.623000M219.045000,320.469000C218.625000,321.385000,219.456000,322.800000,220.414000,322.800000C220.846000,322.800000,221.200000,322.609000,221.200000,322.376000C221.200000,322.143000,221.020000,322.064000,220.800000,322.200000C220.580000,322.336000,220.400000,322.246000,220.400000,322C220.400000,321.754000,220.232000,321.656000,220.027000,321.783000C219.822000,321.910000,219.586000,321.516000,219.503000,320.907000C219.384000,320.031000,219.288000,319.940000,219.045000,320.469000M222.825000,324.811000C222.792000,325.622000,223.921000,327.203000,224.523000,327.187000C224.791000,327.180000,224.698000,326.945000,224.311000,326.651000C223.932000,326.363000,223.448000,325.694000,223.236000,325.164000C223.024000,324.634000,222.839000,324.475000,222.825000,324.811000M227.310000,329.996000C227.368000,330.638000,227.684000,331.042000,228.200000,331.132000C228.924000,331.259000,228.938000,331.221000,228.346000,330.736000C227.986000,330.441000,227.586000,329.930000,227.457000,329.600000C227.327000,329.270000,227.261000,329.448000,227.310000,329.996000M171.762000,330.446000C171.013000,331.279000,171.013000,331.291000,171.762000,331.146000C172.181000,331.066000,172.570000,330.685000,172.627000,330.300000C172.757000,329.408000,172.686000,329.420000,171.762000,330.446000M167.881000,332.073000C167.569000,333.257000,165.659000,334.815000,164.404000,334.910000C163.962000,334.943000,163.600000,335.107000,163.600000,335.275000C163.600000,335.599000,165.604000,335.300000,167.089000,334.755000C168.010000,334.416000,168.584000,333.003000,168.317000,331.732000C168.198000,331.164000,168.100000,331.241000,167.881000,332.073000M231.680000,332.606000C231.680000,334.271000,232.761000,335.220000,234.589000,335.160000C235.750000,335.122000,235.759000,335.109000,234.800000,334.842000C234.250000,334.689000,233.797000,334.392000,233.794000,334.182000C233.783000,333.498000,233.154000,332.781000,232.772000,333.017000C232.568000,333.144000,232.400000,332.887000,232.400000,332.447000C232.400000,332.007000,232.238000,331.547000,232.040000,331.425000C231.842000,331.302000,231.680000,331.834000,231.680000,332.606000" fill="rgb(252,196,4)" fill-rule="evenodd" stroke="none" stroke-width="1"/><path id="ei5d8odygfi5" d="M172.200000,156.884000C170.614000,157.440000,169.600000,158.358000,169.600000,159.238000C169.600000,159.631000,169.420000,160.064000,169.200000,160.200000C168.971000,160.342000,168.800000,162.404000,168.800000,165.024000C168.800000,169.506000,168.707000,169.838000,167.500000,169.647000C167.335000,169.621000,167.200000,169.780000,167.200000,170C167.200000,170.220000,166.919000,170.400000,166.576000,170.400000C166.233000,170.400000,166.055000,170.565000,166.180000,170.768000C166.305000,170.970000,166.166000,171.377000,165.872000,171.671000C165.577000,171.966000,165.419000,172.456000,165.520000,172.759000C165.621000,173.063000,165.521000,173.198000,165.297000,173.060000C165.073000,172.922000,164.898000,173.032000,164.908000,173.304000C165.137000,179.664000,164.727000,186.452000,164.100000,186.685000C161.432000,187.674000,160.445000,190.805000,160.379000,198.478000C160.327000,204.632000,160.029000,206.400000,159.042000,206.400000C158.841000,206.400000,159.002000,206.040000,159.400000,205.600000C160.561000,204.317000,159.835000,204.677000,158.150000,206.219000L156.600000,207.638000L156.469000,215.219000C156.374000,220.672000,156.206000,222.801000,155.869000,222.802000C155.611000,222.804000,154.905000,223.063000,154.300000,223.379000C153.574000,223.757000,153.200000,223.802000,153.200000,223.510000C153.200000,223.266000,153.071000,223.195000,152.914000,223.353000C152.587000,223.679000,152.449000,224.626000,152.136000,228.700000C151.917000,231.546000,151.745000,231.832000,150.353000,231.665000C149.241000,231.531000,148.388000,233.650000,148.139000,237.161000C147.875000,240.871000,147.875000,240.873000,146.555000,241.502000C145.828000,241.848000,145.327000,242.282000,145.441000,242.466000C145.554000,242.650000,145.446000,242.800000,145.200000,242.800000C144.954000,242.800000,144.865000,242.981000,145.002000,243.203000C145.139000,243.424000,144.969000,243.714000,144.625000,243.846000C144.212000,244.004000,144,244.594000,144,245.584000C144,250.950000,142.714000,253.783000,140.813000,252.608000C140.175000,252.214000,139.600000,254.591000,139.600000,257.619000C139.600000,260.649000,139.557000,260.800000,138.700000,260.809000C137.426000,260.821000,135.841000,262.159000,135.790000,263.265000C135.767000,263.779000,135.714000,265.516000,135.674000,267.124000C135.628000,268.954000,135.450000,269.955000,135.200000,269.800000C134.980000,269.664000,134.800000,269.754000,134.800000,270C134.800000,270.246000,134.620000,270.336000,134.400000,270.200000C134.180000,270.064000,134,270.154000,134,270.400000C134,270.646000,133.792000,270.719000,133.538000,270.562000C133.251000,270.384000,133.185000,270.452000,133.364000,270.741000C133.524000,271.001000,133.376000,271.311000,133.028000,271.445000C132.685000,271.576000,132.505000,271.847000,132.628000,272.046000C132.751000,272.245000,132.480000,272.880000,132.026000,273.458000C131.341000,274.329000,131.200000,275.078000,131.200000,277.854000L131.200000,281.200000L129.300000,281.218000C125.925000,281.249000,123.442000,282.367000,123.419000,283.867000C123.394000,285.507000,123.354000,285.535000,120.891000,285.648000C119.426000,285.714000,118.800000,285.908000,118.800000,286.295000C118.800000,286.599000,118.620000,286.736000,118.400000,286.600000C118.180000,286.464000,118,286.563000,118,286.819000C118,287.076000,117.732000,287.183000,117.405000,287.057000C117.061000,286.925000,116.850000,287.034000,116.905000,287.314000C116.957000,287.581000,116.814000,287.768000,116.586000,287.729000C114.261000,287.328000,116.810000,298.774000,119.850000,302.387000C120.418000,303.061000,121.233000,304.537000,121.663000,305.668000C122.092000,306.799000,123.023000,308.303000,123.731000,309.011000C124.548000,309.828000,125.283000,311.183000,125.743000,312.719000C126.220000,314.309000,126.856000,315.462000,127.596000,316.075000C128.688000,316.979000,130.800000,320.962000,130.800000,322.116000C130.800000,322.429000,131.297000,323.115000,131.906000,323.642000C132.514000,324.169000,133.215000,325.050000,133.465000,325.600000C133.714000,326.150000,134.205000,327.253000,134.555000,328.051000C134.905000,328.849000,135.917000,330.379000,136.804000,331.451000C137.691000,332.523000,138.618000,333.952000,138.863000,334.627000L139.308000,335.855000L151.354000,335.677000C159.644000,335.554000,163.492000,335.358000,163.694000,335.049000C163.856000,334.802000,163.991000,334.739000,163.994000,334.908000C164.010000,335.697000,167.328000,333.444000,167.735000,332.368000C168.006000,331.648000,168.487000,331.177000,168.988000,331.141000C170.104000,331.059000,170.943000,330.939000,171.300000,330.809000C171.465000,330.749000,171.825000,330.678000,172.100000,330.650000C172.613000,330.599000,172.664000,330.427000,172.750000,328.453000C172.795000,327.422000,172.968000,327.283000,174.448000,327.084000C176.504000,326.809000,176.809000,326.504000,177.084000,324.448000C177.206000,323.542000,177.472000,322.800000,177.676000,322.800000C177.880000,322.800000,177.946000,322.637000,177.823000,322.437000C177.700000,322.238000,177.987000,322.176000,178.462000,322.300000C179.006000,322.443000,179.230000,322.372000,179.067000,322.108000C178.922000,321.874000,179.114000,321.714000,179.504000,321.745000C179.938000,321.779000,180.179000,321.538000,180.145000,321.104000C180.115000,320.719000,180.274000,320.522000,180.503000,320.664000C180.770000,320.829000,180.824000,320.552000,180.657000,319.884000C180.514000,319.315000,180.578000,318.737000,180.799000,318.601000C181.019000,318.464000,181.200000,317.379000,181.200000,316.189000C181.200000,314.422000,181.311000,314.068000,181.805000,314.257000C182.138000,314.385000,182.678000,314.267000,183.005000,313.996000C183.332000,313.724000,183.600000,313.636000,183.600000,313.800000C183.600000,313.964000,183.874000,313.870000,184.210000,313.592000C184.545000,313.314000,184.727000,312.993000,184.613000,312.880000C184.500000,312.766000,184.606000,312.434000,184.848000,312.142000C185.091000,311.849000,185.187000,311.344000,185.062000,311.018000C184.937000,310.692000,185.007000,310.319000,185.217000,310.189000C185.447000,310.047000,185.600000,305.092000,185.600000,297.776000C185.600000,285.867000,185.618000,285.600000,186.400000,285.600000C186.840000,285.600000,187.200000,285.426000,187.200000,285.213000C187.200000,284.999000,187.470000,284.929000,187.800000,285.055000C188.130000,285.182000,188.400000,285.076000,188.400000,284.819000C188.400000,284.563000,188.550000,284.445000,188.733000,284.559000C188.917000,284.672000,189.107000,284.458000,189.157000,284.082000C189.395000,282.272000,189.510000,280.842000,189.553000,279.147000C189.600000,277.286000,190.300000,276.579000,191.900000,276.774000C192.175000,276.808000,192.400000,276.637000,192.400000,276.394000C192.400000,276.151000,192.561000,276.052000,192.758000,276.174000C193.486000,276.624000,193.567000,274.863000,193.578000,258.165000L193.589000,241.107000L192.632000,240.353000C192.105000,239.939000,191.202000,239.600000,190.626000,239.600000L189.577000,239.600000L189.613000,229.060000L189.648000,218.520000L190.684000,218.718000C191.335000,218.843000,191.624000,218.763000,191.464000,218.503000C191.322000,218.274000,191.519000,218.115000,191.904000,218.145000C192.338000,218.179000,192.579000,217.938000,192.545000,217.504000C192.515000,217.122000,192.669000,216.919000,192.888000,217.054000C193.136000,217.208000,193.178000,216.961000,193,216.400000C192.811000,215.803000,192.858000,215.589000,193.142000,215.764000C193.443000,215.950000,193.573000,208.053000,193.583000,188.941000L193.597000,161.854000L192.498000,161.130000C191.894000,160.731000,190.995000,160.404000,190.500000,160.403000C189.807000,160.401000,189.600000,160.170000,189.600000,159.400000C189.600000,156.455000,189.423000,156.395000,180.838000,156.432000C176.747000,156.449000,172.860000,156.652000,172.200000,156.884000M211.100000,156.832000C210.620000,157.111000,210.400000,157.737000,210.400000,158.820000C210.400000,160.231000,210.295000,160.400000,209.419000,160.400000C208.879000,160.400000,207.984000,160.607000,207.430000,160.859000L206.422000,161.318000L206.424000,187.559000C206.426000,210.190000,206.563000,215.217000,207.299000,219.600000C207.488000,220.721000,208.734000,222.111000,209.341000,221.878000C210.297000,221.511000,210.400000,222.422000,210.400000,231.233000L210.400000,239.600000L209.300000,239.614000C208.695000,239.622000,207.799000,239.851000,207.309000,240.123000L206.418000,240.618000L206.509000,258.048000C206.609000,277.131000,206.534000,276.564000,209.011000,277.028000L210.342000,277.278000L210.541000,280.539000C210.782000,284.492000,210.842000,284.821000,211.267000,284.559000C211.450000,284.445000,211.600000,284.554000,211.600000,284.800000C211.600000,285.046000,211.780000,285.136000,212,285C212.220000,284.864000,212.400000,284.943000,212.400000,285.176000C212.400000,285.409000,212.952000,285.600000,213.627000,285.600000L214.854000,285.600000L214.743000,288.584000C214.646000,291.194000,214.496000,291.714000,213.549000,292.727000L212.466000,293.886000L213.602000,296.138000C214.696000,298.306000,214.739000,298.618000,214.778000,304.527000C214.799000,307.903000,214.982000,311.239000,215.183000,311.940000C215.384000,312.641000,215.560000,313.346000,215.574000,313.507000C215.588000,313.668000,215.780000,313.822000,216,313.850000C216.220000,313.878000,216.535000,313.949000,216.700000,314.009000C216.865000,314.069000,217.360000,314.137000,217.800000,314.159000C218.477000,314.194000,218.639000,314.570000,218.850000,316.600000C219.217000,320.125000,219.656000,322.013000,220.051000,321.768000C220.243000,321.650000,220.400000,321.754000,220.400000,322C220.400000,322.246000,220.580000,322.336000,220.800000,322.200000C221.020000,322.064000,221.200000,322.143000,221.200000,322.376000C221.200000,322.609000,221.650000,322.800000,222.200000,322.800000C223.074000,322.800000,223.200000,322.974000,223.200000,324.184000C223.200000,325.852000,224.463000,327.200000,226.024000,327.200000C226.966000,327.200000,227.129000,327.395000,227.352000,328.787000C227.630000,330.527000,228.255000,331.017000,230.355000,331.141000C232.036000,331.240000,232.400000,331.456000,232.400000,332.354000C232.400000,333.291000,233.950000,334.707000,235.200000,334.912000C235.750000,335.003000,236.470000,335.183000,236.800000,335.313000C237.130000,335.442000,242.627000,335.614000,249.017000,335.695000L260.633000,335.842000L261.542000,333.956000C262.042000,332.919000,263.025000,331.469000,263.726000,330.735000C264.994000,329.406000,265.482000,328.563000,266.402000,326.115000C266.667000,325.408000,267.387000,324.305000,268,323.663000C268.614000,323.021000,269.248000,322.069000,269.410000,321.548000C270.066000,319.435000,271.421000,316.943000,272.427000,316C273.014000,315.450000,273.980000,313.753000,274.573000,312.230000C275.168000,310.704000,276.166000,308.996000,276.795000,308.430000C277.423000,307.863000,278.222000,306.536000,278.570000,305.480000C278.919000,304.424000,279.915000,302.618000,280.784000,301.467000C282.447000,299.265000,283.589000,296.015000,283.900000,292.600000C284,291.500000,284.244000,290.402000,284.441000,290.159000C284.841000,289.667000,283.344000,287.175000,282.477000,286.890000C282.190000,286.795000,282.415000,287.178000,282.977000,287.741000C283.540000,288.303000,283.993000,288.997000,283.984000,289.282000C283.975000,289.567000,283.706000,289.317000,283.386000,288.727000C283.065000,288.138000,282.429000,287.536000,281.971000,287.391000C281.514000,287.246000,281.240000,287.026000,281.364000,286.903000C281.853000,286.413000,280.103000,285.625000,278.500000,285.613000C277.432000,285.605000,276.788000,285.414000,276.767000,285.100000C276.564000,282.055000,276.183000,281.793000,271.300000,281.328000L268.800000,281.090000L268.753000,278.245000C268.727000,276.680000,268.728000,275.259000,268.757000,275.087000C268.988000,273.688000,266.397000,270.123000,265.518000,270.630000C265.233000,270.794000,265.132000,270.782000,265.294000,270.604000C265.455000,270.425000,265.323000,270.081000,265,269.840000C264.580000,269.526000,264.396000,268.509000,264.356000,266.293000C264.326000,264.584000,264.151000,263.093000,263.968000,262.980000C263.785000,262.867000,263.748000,262.481000,263.885000,262.122000C264.044000,261.709000,263.976000,261.567000,263.702000,261.737000C263.464000,261.884000,263.207000,261.820000,263.131000,261.594000C263.056000,261.367000,262.459000,261.085000,261.806000,260.967000C260.316000,260.697000,260.477000,261.049000,260.357000,257.797000C260.300000,256.259000,260.077000,254.550000,259.862000,254C259.647000,253.450000,259.492000,252.889000,259.518000,252.754000C259.543000,252.618000,259.257000,252.508000,258.882000,252.508000C256.278000,252.513000,256.400000,252.682000,256.400000,249.075000C256.400000,245.698000,255.071000,241.600000,253.975000,241.600000C253.743000,241.600000,253.681000,241.808000,253.838000,242.062000C254.016000,242.350000,253.948000,242.415000,253.655000,242.234000C253.398000,242.075000,253.298000,241.765000,253.434000,241.545000C253.569000,241.326000,253.302000,241.047000,252.840000,240.926000C252.034000,240.716000,251.650000,237.936000,251.979000,234.700000C252.018000,234.315000,251.859000,234,251.625000,234C251.391000,234,251.221000,233.865000,251.247000,233.700000C251.416000,232.630000,251.010000,232.304000,248.863000,231.789000C248.035000,231.590000,248.016000,231.524000,247.958000,228.573000C247.879000,224.563000,247.019000,223.200000,244.567000,223.200000L243.600000,223.200000L243.537000,216.300000C243.502000,212.505000,243.488000,209.139000,243.506000,208.820000C243.548000,208.046000,241.982000,206.721000,241.323000,206.974000C241.036000,207.085000,240.800000,206.990000,240.800000,206.764000C240.800000,206.538000,240.619000,206.465000,240.397000,206.602000C239.741000,207.007000,239.638000,206.147000,239.464000,198.800000C239.282000,191.154000,239.182000,190.327000,238.415000,190.072000C238.131000,189.977000,237.387000,189.337000,236.761000,188.650000L235.623000,187.400000L235.612000,181.324000C235.605000,177.903000,235.433000,175.144000,235.217000,175.011000C235.007000,174.881000,234.936000,174.510000,235.060000,174.187000C235.184000,173.864000,235.116000,173.600000,234.910000,173.600000C234.703000,173.600000,233.951000,172.835000,233.238000,171.900000L231.942000,170.200000L233.419000,171.800000C234.867000,173.369000,234.883000,173.375000,234.244000,172.112000C233.572000,170.786000,232.247000,169.800000,231.639000,170.176000C231.450000,170.293000,231.265000,168.489000,231.228000,166.168000C231.191000,163.847000,231.015000,161.555000,230.838000,161.074000C230.660000,160.593000,230.596000,159.969000,230.695000,159.687000C230.897000,159.111000,229.658000,157.009000,229.317000,157.349000C229.197000,157.470000,228.469000,157.305000,227.700000,156.984000C226.026000,156.285000,212.257000,156.158000,211.100000,156.832000" fill="rgb(251,203,132)" fill-opacity="0" fill-rule="evenodd" stroke="rgb(0,0,0)" stroke-width="1"/><path id="ei5d8odygfi6" d="M113.874000,291.014000C113,292.846000,113.022000,294.278000,113.953000,296.225000C114.368000,297.091000,115.043000,298.958000,115.453000,300.372000C116.013000,302.300000,116.626000,303.378000,117.900000,304.675000C118.835000,305.626000,119.600000,306.766000,119.600000,307.207000C119.600000,308.462000,121.181000,311.512000,122.345000,312.502000C123.466000,313.456000,124.400000,315.192000,124.400000,316.322000C124.400000,316.698000,125.169000,317.943000,126.108000,319.088000C127.048000,320.234000,128.068000,322.032000,128.376000,323.085000C128.870000,324.778000,130.461000,326.798000,131.300000,326.800000C131.465000,326.800000,131.600000,327.063000,131.600000,327.385000C131.600000,329.364000,133.408000,332.529000,136.166000,335.378000L139.092000,338.400000L141.346000,338.400000C143.584000,338.400000,143.600000,338.391000,143.600000,337.200000C143.600000,336.018000,143.569000,336,141.480000,336C139.452000,336,139.340000,335.944000,138.889000,334.700000C138.629000,333.985000,137.691000,332.523000,136.804000,331.451000C135.917000,330.379000,134.905000,328.849000,134.555000,328.051000C134.205000,327.253000,133.714000,326.150000,133.465000,325.600000C133.215000,325.050000,132.514000,324.169000,131.906000,323.642000C131.297000,323.115000,130.800000,322.429000,130.800000,322.116000C130.800000,320.962000,128.688000,316.979000,127.596000,316.075000C126.856000,315.462000,126.220000,314.309000,125.743000,312.719000C125.283000,311.183000,124.548000,309.828000,123.731000,309.011000C123.023000,308.303000,122.082000,306.771000,121.639000,305.606000C121.196000,304.441000,120.484000,303.108000,120.056000,302.644000C118.440000,300.891000,115.995000,295.006000,115.800000,292.400000C115.759000,291.850000,115.697000,290.995000,115.662000,290.500000C115.569000,289.149000,114.636000,289.416000,113.874000,291.014000M284.490000,290.100000C284.266000,290.375000,284,291.500000,283.900000,292.600000C283.589000,296.015000,282.447000,299.265000,280.784000,301.467000C279.915000,302.618000,278.919000,304.424000,278.570000,305.480000C278.222000,306.536000,277.423000,307.863000,276.795000,308.430000C276.166000,308.996000,275.168000,310.704000,274.573000,312.230000C273.980000,313.753000,273.014000,315.450000,272.427000,316C271.421000,316.943000,270.066000,319.435000,269.410000,321.548000C269.248000,322.069000,268.614000,323.021000,268,323.663000C267.387000,324.305000,266.667000,325.408000,266.402000,326.115000C265.482000,328.563000,264.994000,329.406000,263.726000,330.735000C263.025000,331.469000,262.035000,332.963000,261.526000,334.054000L260.600000,336.038000L258.482000,335.919000L256.363000,335.800000L256.482000,337C256.596000,338.162000,256.672000,338.204000,258.866000,338.319000L261.131000,338.438000L262.866000,336.239000C263.820000,335.030000,264.902000,333.934000,265.271000,333.803000C266.171000,333.483000,267.446000,331.252000,268.192000,328.692000C268.611000,327.254000,269.152000,326.365000,269.922000,325.849000C270.931000,325.174000,272.800000,321.447000,272.800000,320.111000C272.800000,319.860000,273.333000,319.275000,273.985000,318.811000C274.791000,318.236000,275.388000,317.273000,275.855000,315.792000C276.233000,314.594000,277.128000,312.995000,277.849000,312.231000C279.428000,310.556000,280.204000,309.094000,280.562000,307.117000C280.737000,306.147000,281.214000,305.360000,281.938000,304.844000C283.301000,303.873000,284.513000,301.459000,285.430000,297.884000C285.814000,296.391000,286.279000,295.075000,286.464000,294.961000C286.994000,294.633000,286.857000,292.634000,286.195000,291.049000C285.553000,289.512000,285.152000,289.289000,284.490000,290.100000M113.308000,333.081000C111.242000,333.480000,108.103000,337.238000,107.798000,339.677000C106.925000,346.669000,110.351000,350.800000,117.024000,350.800000C119.854000,350.800000,120.609000,350.458000,123.200000,348.006000L125.400000,345.924000L125.400000,341.765000L125.400000,337.607000L123.200000,335.559000C120.278000,332.837000,117.792000,332.215000,113.308000,333.081000M279.590000,333.332000C270.777000,337.931000,273.584000,350.800000,283.400000,350.800000C291.708000,350.800000,295.696000,341.233000,289.832000,335.368000C287.261000,332.798000,282.447000,331.841000,279.590000,333.332000M121.234000,337.203000C123.543000,339.547000,123.600000,339.659000,123.600000,341.800000C123.600000,347.277000,116.369000,350.969000,112.830000,347.300000C112.035000,346.475000,110.982000,345.487000,110.492000,345.104000C109.187000,344.085000,109.174000,339.532000,110.473000,338.496000C110.953000,338.113000,111.973000,337.125000,112.739000,336.300000C115.147000,333.705000,118.100000,334.019000,121.234000,337.203000M287.281000,336.300000C288.057000,337.125000,289.167000,338.224000,289.746000,338.742000C291.282000,340.115000,291.281000,343.487000,289.745000,344.858000C289.164000,345.376000,288.029000,346.475000,287.221000,347.300000C283.637000,350.963000,276.400000,347.289000,276.400000,341.806000C276.400000,339.609000,276.453000,339.503000,278.700000,337.197000L281,334.836000L283.434000,334.818000C285.740000,334.801000,285.944000,334.880000,287.281000,336.300000" fill="rgb(100,172,132)" fill-rule="evenodd" stroke="none" stroke-width="1"/><path id="ei5d8odygfi7" d="M162.509000,186.484000C161.614000,186.916000,160.921000,188.255000,161.363000,188.697000C161.494000,188.827000,161.600000,188.631000,161.600000,188.261000C161.600000,187.891000,162.185000,187.232000,162.900000,186.796000C164.273000,185.959000,164.018000,185.756000,162.509000,186.484000M236.800000,187.690000C237.570000,188.462000,238.274000,189.029000,238.364000,188.949000C238.611000,188.732000,237.122000,187.185000,236.204000,186.706000C235.758000,186.473000,236.022000,186.910000,236.800000,187.690000M212.582000,291.782000C211.548000,292.816000,211.351000,294.471000,212.034000,296.400000C212.308000,297.175000,212.344000,297.024000,212.193000,295.727000C211.955000,293.672000,212.546000,291.992000,213.605000,291.715000C214.042000,291.600000,214.400000,291.348000,214.400000,291.153000C214.400000,290.504000,213.574000,290.790000,212.582000,291.782000M112.739000,336.300000C111.973000,337.125000,110.953000,338.113000,110.473000,338.496000C109.174000,339.532000,109.187000,344.085000,110.492000,345.104000C110.982000,345.487000,112.035000,346.475000,112.830000,347.300000C116.369000,350.969000,123.600000,347.277000,123.600000,341.800000C123.600000,336.311000,116.205000,332.566000,112.739000,336.300000M278.700000,337.197000C276.453000,339.503000,276.400000,339.609000,276.400000,341.806000C276.400000,347.289000,283.637000,350.963000,287.221000,347.300000C288.029000,346.475000,289.164000,345.376000,289.745000,344.858000C291.281000,343.487000,291.282000,340.115000,289.746000,338.742000C289.167000,338.224000,288.057000,337.125000,287.281000,336.300000C285.944000,334.880000,285.740000,334.801000,283.434000,334.818000L281,334.836000L278.700000,337.197000" fill="rgb(180,220,220)" fill-rule="evenodd" stroke="none" stroke-width="1"/></g></svg>